<?xml version="1.0" encoding="UTF-8"?>
<svg version="1.1" xmlns="http://www.w3.org/2000/svg" width="512" height="512">
<path d="M0 0 C1.22399102 -0.00382555 2.44798205 -0.00765109 3.70906371 -0.01159257 C7.09448896 -0.02011022 10.4796964 -0.01969488 13.86511528 -0.01541197 C17.52098929 -0.01294181 21.17683795 -0.02196257 24.83270264 -0.02944946 C31.99064779 -0.04219087 39.14855542 -0.04399081 46.30651001 -0.0416492 C52.12624659 -0.03986509 57.94597179 -0.04161768 63.76570702 -0.04587364 C65.00886609 -0.04676643 65.00886609 -0.04676643 66.27713948 -0.04767724 C67.96089143 -0.04888902 69.64464338 -0.05010315 71.32839533 -0.05131962 C87.1148482 -0.06219322 102.90127971 -0.06003365 118.68773379 -0.05393478 C133.12031365 -0.048767 147.55282599 -0.06001769 161.98539249 -0.07903299 C176.8136915 -0.09841951 191.64195857 -0.10666589 206.47027034 -0.10290974 C214.79161246 -0.10099878 223.11289713 -0.10347498 231.4342289 -0.11762428 C238.51913825 -0.1295495 245.6039548 -0.13093028 252.68886546 -0.11883412 C256.30126363 -0.11295312 259.91349213 -0.1118242 263.52587891 -0.12383652 C267.44791893 -0.13672654 271.36970308 -0.12621211 275.29174805 -0.11352539 C276.42512928 -0.12089968 277.55851052 -0.12827396 278.72623664 -0.13587171 C287.88433566 -0.07364517 296.48428612 0.9923486 303.36759949 7.51850891 C308.33037321 13.40520327 309.95733459 19.9562828 309.96777725 27.53880024 C309.9716184 28.58884056 309.97545954 29.63888089 309.97941709 30.72074062 C309.9785506 31.86800394 309.97768412 33.01526726 309.97679138 34.19729614 C309.98124807 36.0328361 309.98124807 36.0328361 309.98579478 37.90545768 C309.99296802 41.2992037 309.99565355 44.6928991 309.99639225 48.08664906 C309.99824528 51.74796751 310.0057938 55.40927504 310.01252747 59.07058716 C310.02610044 67.07470368 310.03213371 75.07881518 310.03653812 83.08294129 C310.03930193 88.08135411 310.0435395 93.07976499 310.0480423 98.0781765 C310.06023292 111.91954457 310.07053309 125.7609111 310.07391739 139.60228443 C310.07413695 140.48787971 310.07435652 141.37347498 310.07458274 142.28590648 C310.07480102 143.1736067 310.0750193 144.06130692 310.07524419 144.97590715 C310.07568765 146.77469432 310.07613422 148.5734815 310.07658386 150.37226868 C310.07680529 151.26452712 310.07702672 152.15678556 310.07725486 153.07608213 C310.08120346 167.5360027 310.09866027 181.99587288 310.12194338 196.45577399 C310.14565923 211.30433586 310.15811932 226.15287246 310.15928531 241.00145358 C310.16020186 249.33729878 310.16594939 257.67307831 310.18410492 266.00890541 C310.19950894 273.10635733 310.20462454 280.20372328 310.19636682 287.30118874 C310.19246156 290.92143074 310.19338375 294.54149961 310.20742416 298.16172028 C310.22251579 302.08893671 310.21429298 306.01590985 310.20384216 309.94314575 C310.21592677 311.65400249 310.21592677 311.65400249 310.22825551 313.39942199 C310.18419086 320.47309324 309.60266915 326.39371906 305.36369324 332.31929016 C301.27118329 335.86881353 297.77120639 337.26328242 292.33244324 337.49507141 C286.82497528 336.97793827 283.10638953 334.62843184 279.39884949 330.63569641 C277.25112556 327.37115604 276.71031369 325.69374106 276.69768429 321.82914543 C276.69220984 320.89161332 276.6867354 319.95408121 276.68109506 318.98813903 C276.6796279 317.43271634 276.6796279 317.43271634 276.6781311 315.84587097 C276.67319313 314.74977009 276.66825515 313.65366921 276.66316754 312.52435315 C276.64772766 308.82693141 276.6394144 305.12952711 276.63102722 301.43208313 C276.62145379 298.79142499 276.61148781 296.15077107 276.60102844 293.51011658 C276.57924683 287.81232813 276.56110852 282.11453734 276.54542351 276.41672897 C276.5227402 268.17858898 276.49459525 259.94047482 276.46510423 251.70235671 C276.41740942 238.33753733 276.37415037 224.9727074 276.33366394 211.60786438 C276.29431862 198.62282998 276.25289471 185.63780497 276.20866394 172.65278625 C276.20593967 171.85279689 276.2032154 171.05280752 276.20040857 170.22857605 C276.18672925 166.2153861 276.17300895 162.2021963 276.15926826 158.18900657 C276.04527382 124.87958921 275.93847104 91.57015228 275.83634949 58.26069641 C275.14171435 58.95609099 274.44707922 59.65148556 273.73139453 60.3679527 C232.59424018 101.54990544 191.45181663 142.72658878 150.30264388 183.89653268 C145.36575824 188.83591305 140.4289218 193.77534259 135.49211121 198.71479797 C135.000831 199.2063397 134.50955079 199.69788143 134.0033833 200.20431836 C118.07151893 216.14470971 102.14290752 232.08834694 86.21597474 248.0336656 C69.38926266 264.87976702 52.55886145 281.72217383 35.72454572 298.56067717 C25.63632972 308.65164229 15.55109633 318.74556968 5.46961531 328.84326352 C-1.43668328 335.76010489 -8.34663245 342.67328514 -15.25950631 349.58355497 C-19.252328 353.57509114 -23.24347918 357.56826223 -27.23031807 361.56577492 C-30.87652351 365.22167121 -34.52726435 368.87297237 -38.18174872 372.52059241 C-39.50657919 373.84457376 -40.82970082 375.1702676 -42.15098038 376.49779265 C-43.94054219 378.29532395 -45.73609705 380.08664363 -47.53334427 381.87648582 C-48.05066586 382.39906145 -48.56798746 382.92163707 -49.10098547 383.46004832 C-53.66047107 387.976892 -56.62936329 389.55415332 -63.03865051 389.63569641 C-68.24631958 389.53433059 -71.26945684 388.9601804 -75.16365051 385.26069641 C-79.57780893 380.61421387 -79.63123312 376.37276575 -79.69490051 370.26069641 C-78.59303034 364.03837074 -73.91633494 359.72281199 -69.56457901 355.41552925 C-69.00786544 354.85650799 -68.45115187 354.29748673 -67.87756819 353.72152543 C-66.01257272 351.85124003 -64.14053572 349.98816889 -62.26844788 348.12498474 C-60.91575881 346.77142341 -59.56350938 345.4174226 -58.21166205 344.06302059 C-54.49687 340.34375525 -50.77586847 336.630757 -47.05383039 332.91874504 C-43.04070299 328.91425006 -39.03335241 324.90398155 -35.02529907 320.89440918 C-28.08068707 313.9487482 -21.13242097 307.0067601 -14.18166351 300.0672493 C-4.13202547 290.03386147 5.91208907 279.99495923 15.95486167 269.9547001 C32.2485253 253.66541432 48.54664156 237.38059244 64.84757996 221.09858704 C80.68293707 205.28160093 96.51619043 189.46251375 112.34660339 173.64057922 C112.83463357 173.1528121 113.32266375 172.66504497 113.82548272 172.16249702 C118.72651492 167.26410189 123.62750441 162.36566402 128.52846261 157.46719485 C169.62463655 116.39190031 210.72801069 75.32381621 251.83634949 34.26069641 C251.27154794 34.26009932 250.70674639 34.25950223 250.12482965 34.25888705 C216.65578636 34.22299909 183.1868501 34.1663694 149.71789303 34.08277546 C145.69992445 34.07275791 141.68195547 34.0629138 137.66398621 34.05317688 C136.86407531 34.05123551 136.06416441 34.04929413 135.24001379 34.04729393 C122.28515232 34.01626633 109.33030856 33.99929116 96.37541692 33.98750219 C83.0841315 33.97509456 69.79293913 33.94760196 56.50171244 33.90608335 C48.29919327 33.88093676 40.0968284 33.86757997 31.89427014 33.86926684 C26.27072515 33.86929658 20.64733742 33.85468386 15.0238537 33.82853213 C11.77851594 33.81387303 8.53356605 33.80786322 5.28819275 33.81489372 C1.76917943 33.8215028 -1.74888888 33.80368548 -5.26780701 33.77967834 C-6.80575265 33.79131897 -6.80575265 33.79131897 -8.3747679 33.80319476 C-14.15040121 33.73326632 -17.62228687 33.1973993 -22.16365051 29.26069641 C-26.14077168 24.63863668 -27.42564836 20.26568711 -27.16365051 14.26069641 C-25.5986092 9.04389205 -23.43059762 5.65485889 -19.16365051 2.26069641 C-12.84232712 -0.17179989 -6.70960039 -0.02224221 0 0 Z " fill="#000000" transform="translate(141.1636505126953,60.73930358886719)"/>
</svg>
